<?xml version="1.0" encoding="utf-8"?>
<!-- Generator: Adobe Illustrator 28.1.0, SVG Export Plug-In . SVG Version: 6.00 Build 0)  -->
<svg version="1.1" id="Layer_1" xmlns="http://www.w3.org/2000/svg" xmlns:xlink="http://www.w3.org/1999/xlink" x="0px" y="0px"
	 viewBox="0 0 1500 1500" style="enable-background:new 0 0 1500 1500;" xml:space="preserve" width="1500" height="1500">
<style type="text/css">
	.st0{fill:#DF5934;}
	.st1{fill:none;stroke:#FFFFFF;stroke-width:36;stroke-miterlimit:10;}
	.st2{clip-path:url(#SVGID_00000044873311726273448650000015727827240586584753_);}
	.st3{display:none;fill-rule:evenodd;clip-rule:evenodd;fill:#DE5934;}
	.st4{fill-rule:evenodd;clip-rule:evenodd;fill:#DDDDDD;}
	.st5{fill:#FFFFFF;}
	.st6{fill:#3DA849;}
	.st7{fill:#4FB848;}
	.st8{fill-rule:evenodd;clip-rule:evenodd;fill:#FFCD34;}
	.st9{opacity:0.8;}
	.st10{fill:#27377A;}
	.st11{fill-rule:evenodd;clip-rule:evenodd;fill:#27377A;}
	.st12{display:none;fill-rule:evenodd;clip-rule:evenodd;fill:#FFFFFF;}
</style>
<path class="st0" d="M1414.09,641.23L226.05,18.75C144.29-24.09,46.26,35.21,46.26,127.52v1244.96
	c0,92.31,98.03,151.61,179.79,108.77l1188.04-622.48C1501.83,812.8,1501.83,687.2,1414.09,641.23z"/>
<path class="st1" d="M1340.22,682.96L244.84,124.49c-50.07-25.53-109.44,10.84-109.44,67.04v1116.93
	c0,56.2,59.37,92.57,109.44,67.04l1095.38-558.46C1394.98,789.12,1394.98,710.88,1340.22,682.96z"/>
<g>
	<g>
		<defs>
			<rect id="SVGID_1_" x="-39.89" y="120.67" width="1108.04" height="1108.04"/>
		</defs>
		<clipPath id="SVGID_00000130640440242059155830000006205964492440022664_">
			<use xlink:href="#SVGID_1_"  style="overflow:visible;"/>
		</clipPath>
		<g style="clip-path:url(#SVGID_00000130640440242059155830000006205964492440022664_);">
			<path class="st3" d="M515.88,1232.13c306.92,3.96,558.94-241.65,562.89-548.57S837.12,124.63,530.2,120.67
				c-4.77-0.06-9.55-0.06-14.32,0C208.96,124.63-36.64,376.64-32.69,683.56C-28.8,984.91,214.54,1228.25,515.88,1232.13z"/>
			<path class="st4" d="M594,1091.13c0-4.43,1.11-5.45-12.74-32.96c-36.66-73.41-73.5-177.01-56.79-243.77
				c3.05-12.1-34.53-449.31-61.13-463.35c-29.55-15.7-65.93-40.72-99.17-46.35c-16.81-2.68-38.97-1.39-56.33,0.92
				c-2.95,0.46-3.14,6-0.18,6.93c11.36,3.88,25.12,10.53,33.24,20.68c1.57,1.85-0.55,4.89-2.95,4.99
				c-7.66,0.28-21.51,3.51-39.89,19.02c-2.12,1.85-0.37,5.17,2.4,4.62c39.34-7.76,79.59-3.97,103.32,17.54
				c1.48,1.48,0.74,3.97-1.29,4.62c-205.73,55.86-165.01,234.81-110.25,454.39c48.75,195.75,67.13,258.73,72.95,277.93
				c0.53,1.86,1.9,3.36,3.69,4.06c70.82,28.26,225.12,29.55,225.12-18.47v-10.9V1091.13z"/>
			<path class="st5" d="M622.16,1132.31c-24.93,9.79-73.78,14.13-101.94,14.13c-41.37,0-101.02-6.46-122.72-16.34
				c-34.92-109.37-65.97-219.93-93.08-331.49l-3.88-15.88v-0.18c-47.18-192.34-85.69-349.49,125.21-398.89
				c1.85-0.46,2.77-2.77,1.57-4.25c-24.19-28.72-69.53-38.14-126.78-18.38c-2.4,0.83-4.43-1.57-2.95-3.51
				c11.27-15.51,33.24-27.42,44.04-32.69c2.22-1.02,2.12-4.34-0.28-5.08c-10.73-3.38-21.68-6-32.78-7.85
				c-3.14-0.46-3.51-6-0.28-6.46c81.26-10.9,166.11,13.48,208.68,67.13c0.4,0.48,0.96,0.8,1.57,0.92
				c155.96,33.52,167.13,279.97,149.12,291.23c-3.51,2.22-14.87,0.92-29.82-0.74c-60.67-6.83-180.8-20.31-81.63,164.54
				c0.92,1.85-0.37,4.25-2.4,4.52c-55.86,8.68,15.7,183.84,68.33,299.17V1132.31z"/>
			<path class="st6" d="M691.97,908.31c-11.91-5.54-57.53,27.15-87.72,52.26c-6.46-8.96-18.38-15.42-45.25-10.71
				c-23.55,4.06-36.57,9.7-42.47,19.58c-37.12-14.13-99.72-35.92-114.77-14.87c-16.62,22.9,4.06,131.58,26.04,145.71
				c11.45,7.39,66.3-27.89,94.92-52.17c4.62,6.46,12,10.25,27.33,9.88c23.08-0.46,60.57-5.91,66.39-16.62
				c0.39-0.74,0.7-1.51,0.92-2.31c29.36,10.99,81.26,22.62,92.71,20.87c30.19-4.52-4.16-145.25-18.1-151.71V908.31z"/>
			<path class="st7" d="M606.93,963.8c1.29,2.22,2.31,4.62,3.14,6.93c4.16,11.73,11.08,49.03,5.82,58.26
				c-5.17,9.23-38.78,13.67-59.37,14.04c-20.68,0.37-25.39-7.2-29.55-18.93c-3.42-9.42-5.08-31.39-4.99-44.04
				c-0.92-18.74,6-25.3,37.58-30.47c23.45-3.69,35.83,0.65,42.94,8.13c33.24-24.75,88.74-59.74,94.18-53.37
				c26.96,31.86,30.38,107.85,24.47,138.41c-1.85,9.97-91.23-9.88-91.23-20.68C629.92,977.37,618.37,965.09,606.93,963.8z
				 M411.26,949.86c7.39-11.63,66.67,2.77,99.26,17.27c0,0-6.74,30.38,3.97,66.02c3.05,10.53-74.98,56.97-85.13,48.94
				C417.63,1072.85,395.94,974.14,411.26,949.86z"/>
			<path class="st8" d="M440.07,714.68c4.8-20.87,27.15-60.2,106.93-59.28c40.35-0.09,90.49,0,123.73-3.69
				c37.84-4.22,74.99-13.28,110.53-26.96c34.53-13.11,46.81-10.16,51.15-2.31c4.62,8.68-0.92,23.64-12.93,37.4
				c-23.08,26.32-64.64,46.72-137.77,52.72c-73.22,6.09-121.79-13.57-142.66,18.47c-8.96,13.76-2.03,46.26,68.79,56.51
				c95.66,13.85,174.33-16.62,184.03,1.75c9.7,18.47-46.17,55.77-142.11,56.6c-95.85,0.74-155.68-33.61-176.92-50.69
				C445.89,773.59,433.79,742.01,440.07,714.68z"/>
			<g class="st9">
				<path class="st10" d="M562.14,486.51c5.26-8.77,17.17-15.51,36.57-15.51c19.39,0,28.53,7.66,34.81,16.25
					c1.29,1.85-0.65,3.88-2.59,2.95c-0.49-0.18-0.99-0.37-1.48-0.55c-9.59-4.64-20.1-7.07-30.75-7.11
					c-11.22-0.51-22.38,1.97-32.32,7.2C564.17,490.85,560.85,488.54,562.14,486.51z M343.67,497.68
					c13.84-6.25,29.35-7.77,44.14-4.34c2.22,0.46,3.69-1.85,1.94-3.32c-14.48-10.66-33.51-12.87-50.05-5.82
					c-21.15,7.85-31.12,24.28-31.12,35.09c0,2.49,5.17,2.77,6.46,0.55C318.74,514.03,324.84,505.53,343.67,497.68z"/>
				<path class="st11" d="M615.14,606.27c-16.62,0-30.1-13.48-30.1-30.1l0,0c0.05-16.59,13.51-30.01,30.1-30.01
					c16.62-0.05,30.14,13.38,30.19,30.01c0,0,0,0,0,0c0,16.62-13.48,30.1-30.1,30.1C615.2,606.27,615.17,606.27,615.14,606.27z
					 M636.38,566.2c0-4.31-3.49-7.8-7.8-7.8s-7.8,3.49-7.8,7.8c0,4.33,3.51,7.85,7.85,7.85c4.33,0,7.85-3.51,7.85-7.85H636.38z
					 M415.33,597.13c0,19.38-15.71,35.09-35.09,35.09c-19.38,0.1-35.17-15.52-35.27-34.9c0-0.06,0-0.12,0-0.19
					c0-19.38,15.71-35.09,35.09-35.09c0.03,0,0.06,0,0.09,0C399.54,562.04,415.33,577.74,415.33,597.13z M404.98,585.5
					c0-5.05-4.1-9.14-9.15-9.13c-5.04,0-9.13,4.09-9.13,9.13c0,4.99,4.06,9.05,9.23,9.05C400.93,594.55,404.98,590.49,404.98,585.5z
					"/>
			</g>
			<path class="st12" d="M515.88,1143.12c257.79,0.04,466.8-208.9,466.84-466.69s-208.9-466.8-466.69-466.84c-0.05,0-0.1,0-0.15,0
				C258.1,209.64,49.15,418.65,49.19,676.43C49.24,934.16,258.15,1143.08,515.88,1143.12z M515.88,1186.52
				c281.75,0,510.16-228.41,510.16-510.16S797.64,166.2,515.88,166.2S5.72,394.6,5.72,676.36S234.13,1186.52,515.88,1186.52z"/>
		</g>
	</g>
</g>
</svg>
